HIERARCHY
ROOT Hips
{
	OFFSET -218.283997 91.576897 -173.547501
	CHANNELS 6 Xposition Yposition Zposition Xrotation Yrotation Zrotation 
	JOINT RightUpLeg
	{
		OFFSET 0.103458 1.857835 10.548497
		CHANNELS 3 Xrotation Yrotation Zrotation
		JOINT RightLeg
		{
			OFFSET 43.500000 -0.000034 -0.000013
			CHANNELS 3 Xrotation Yrotation Zrotation
			JOINT RightFoot
			{
				OFFSET 42.372192 0.000011 0.000010
				CHANNELS 3 Xrotation Yrotation Zrotation
				JOINT RightToe
				{
					OFFSET 17.299994 -0.000002 -0.000009
					CHANNELS 3 Xrotation Yrotation Zrotation
					End Site
					{
						OFFSET 0.000000 0.000000 0.000000
					}
				}
			}
		}
	}
	JOINT LeftUpLeg
	{
		OFFSET 0.103456 1.857832 -10.548508
		CHANNELS 3 Xrotation Yrotation Zrotation
		JOINT LeftLeg
		{
			OFFSET 43.500038 -0.000027 0.000004
			CHANNELS 3 Xrotation Yrotation Zrotation
			JOINT LeftFoot
			{
				OFFSET 42.372261 -0.000011 0.000014
				CHANNELS 3 Xrotation Yrotation Zrotation
				JOINT LeftToe
				{
					OFFSET 17.299995 -0.000004 0.000011
					CHANNELS 3 Xrotation Yrotation Zrotation
					End Site
					{
						OFFSET 0.000000 0.000000 0.000000
					}
				}
			}
		}
	}
	JOINT Spine
	{
		OFFSET 6.901970 -2.603727 -0.000002
		CHANNELS 3 Xrotation Yrotation Zrotation
		JOINT Spine1
		{
			OFFSET 12.588097 -0.000001 0.000008
			CHANNELS 3 Xrotation Yrotation Zrotation
			JOINT Spine2
			{
				OFFSET 12.343203 0.000000 -0.000005
				CHANNELS 3 Xrotation Yrotation Zrotation
				JOINT Neck
				{
					OFFSET 25.832903 -0.000002 -0.000005
					CHANNELS 3 Xrotation Yrotation Zrotation
					JOINT Head
					{
						OFFSET 11.766603 0.000011 -0.000000
						CHANNELS 3 Xrotation Yrotation Zrotation
						End Site
						{
							OFFSET 0.000000 0.000000 0.000000
						}
					}
				}
				JOINT RightShoulder
				{
					OFFSET 19.745899 -1.480377 6.000100
					CHANNELS 3 Xrotation Yrotation Zrotation
					JOINT RightArm
					{
						OFFSET 11.284134 -0.000021 -0.000017
						CHANNELS 3 Xrotation Yrotation Zrotation
						JOINT RightForeArm
						{
							OFFSET 33.000053 0.000002 0.000032
							CHANNELS 3 Xrotation Yrotation Zrotation
							JOINT RightHand
							{
								OFFSET 25.200005 0.000020 0.000008
								CHANNELS 3 Xrotation Yrotation Zrotation
								End Site
								{
									OFFSET 0.000000 0.000000 0.000000
								}
							}
						}
					}
				}
				JOINT LeftShoulder
				{
					OFFSET 19.746092 -1.480377 -6.000073
					CHANNELS 3 Xrotation Yrotation Zrotation
					JOINT LeftArm
					{
						OFFSET 11.284133 -0.000016 -0.000019
						CHANNELS 3 Xrotation Yrotation Zrotation
						JOINT LeftForeArm
						{
							OFFSET 33.000092 0.000022 0.000006
							CHANNELS 3 Xrotation Yrotation Zrotation
							JOINT LeftHand
							{
								OFFSET 25.199783 0.000138 0.000434
								CHANNELS 3 Xrotation Yrotation Zrotation
								End Site
								{
									OFFSET 0.000000 0.000000 0.000000
								}
							}
						}
					}
				}
			}
		}
	}
}
MOTION
Frames: 7
Frame Time: 0.033333
-297.292694 81.312149 498.014496 78.182553 4.810969 8.433314 160.111136 -13.750107 178.147043 -69.551400 2.631547 -3.742625 80.705543 -1.769072 -17.704579 21.454557 0.003108 0.000019 151.200813 18.451708 -171.093411 -51.504022 2.764924 1.814170 79.604673 -0.466013 3.259900 21.454553 -0.003091 0.000000 13.271928 0.931481 0.220284 16.537667 1.821845 0.571666 16.219398 1.825128 0.560637 5.678955 -7.394430 -3.374872 -32.804753 5.210428 -7.233487 158.602279 -74.434971 20.484239 3.350357 56.459669 33.099865 -56.353569 -22.523140 2.510299 0.922680 -13.414791 25.122211 -177.323951 84.277069 4.310082 -17.926381 -40.274159 -17.572190 -47.655982 21.079796 -2.080687 0.118658 20.574229 -6.812382 
-297.747192 82.241348 497.474609 79.232844 5.142151 7.515380 161.269987 -13.215606 179.787463 -66.656656 2.423214 -2.752353 79.818936 -2.685678 -18.016470 21.454558 0.003112 0.000018 151.301326 17.981093 -171.389049 -49.571935 2.953322 1.767885 79.272432 -0.581512 2.664147 21.454553 -0.003091 0.000000 13.273388 0.780991 0.374826 16.541011 1.500299 0.857631 16.222811 1.505312 0.848539 4.982478 -7.525262 -3.250480 -33.307957 5.147027 -7.163685 158.804603 -74.162092 20.291442 3.667813 55.929578 33.856042 -56.107952 -22.488741 2.498773 2.872866 -10.231913 24.941001 -176.314886 84.406474 5.330001 -18.268567 -39.287760 -14.917985 -49.860371 21.435039 -2.176363 0.457686 22.176190 -5.704428 
-298.116486 82.992737 497.066589 80.073251 5.461610 6.728548 162.239177 -12.809297 -178.572250 -64.239753 2.285569 -1.563289 79.047343 -3.598288 -17.777852 21.454558 0.003102 0.000019 151.382783 17.598910 -171.566074 -47.964621 2.930408 1.682071 78.931763 -0.621533 2.246389 21.454553 -0.003093 0.000000 13.269878 0.648992 0.445911 16.533117 1.227528 0.980108 16.214977 1.233286 0.972664 4.585639 -7.896348 -3.114047 -34.135049 5.120406 -7.136854 159.305775 -73.963961 19.789454 3.913359 55.622274 34.036728 -55.811026 -22.574199 2.493693 4.311427 -7.602643 24.289578 -177.083009 84.486230 4.557003 -18.537822 -38.927434 -11.629918 -52.287690 20.952838 -2.225926 1.492680 24.033672 -2.619467 
-298.412415 83.548286 496.766815 80.728615 5.750194 6.058846 163.105614 -12.508898 -177.343785 -62.232872 1.940868 -0.958594 78.559442 -4.179554 -18.079039 21.454557 0.003108 0.000018 151.368125 17.329192 -171.802508 -46.797301 2.914959 1.605004 78.653501 -0.642758 1.939841 21.454555 -0.003092 -0.000000 13.255301 0.556960 0.454992 16.502980 1.043259 0.984866 16.184864 1.049051 0.978535 3.966880 -8.669627 -2.929447 -34.332462 5.277925 -7.190662 160.476019 -73.702604 18.606241 3.831056 55.452076 33.946177 -55.280020 -22.835756 2.492212 5.405402 -6.651037 22.946009 179.157078 84.731283 0.768033 -18.650800 -39.122374 -9.715373 -54.286101 20.974968 -2.297447 2.814983 24.997314 1.094240 
-298.617004 83.942818 496.592010 81.147155 6.031966 5.515066 163.857317 -12.522004 -177.289581 -60.719555 1.542587 -0.670099 78.253457 -4.520216 -18.428327 21.454555 0.003115 0.000017 151.393452 17.259203 -171.909045 -45.949999 2.908417 1.451591 78.437032 -0.607572 1.657891 21.454551 -0.003094 -0.000000 13.232738 0.500311 0.437343 16.457001 0.933264 0.941476 16.138934 0.938799 0.935812 3.666214 -9.350630 -2.857839 -34.568171 5.349192 -7.290274 161.327292 -73.381421 17.750852 3.780517 55.358724 33.507347 -54.981165 -22.811949 2.479594 5.932082 -7.323647 22.154793 179.751017 84.731058 1.366986 -19.036514 -39.409181 -8.184127 -56.070737 20.700912 -2.342917 2.511685 25.064911 1.263512 
-298.757385 84.183472 496.541290 81.340388 6.332632 5.041714 164.575211 -12.489196 -178.576908 -59.637886 1.859069 -0.595228 78.142255 -4.673243 -18.705730 21.454557 0.003109 0.000018 151.411743 17.365206 -171.964001 -45.473596 2.878405 1.233194 78.317954 -0.515523 1.422963 21.454550 -0.003094 0.000000 13.209063 0.457373 0.402695 16.408954 0.852958 0.866251 16.090850 0.858037 0.861069 3.493913 -9.757334 -2.761420 -34.696159 5.174583 -7.173992 161.543304 -73.068954 17.544521 3.688039 55.405432 33.184969 -54.974782 -22.973493 2.490535 5.537899 -8.941369 22.535927 -179.687046 84.682823 1.932955 -19.168837 -39.826751 -7.906272 -57.382926 20.493054 -2.376837 1.697987 24.754453 0.163789 
-298.829315 84.195808 496.625214 81.242272 6.452075 4.636184 165.237029 -12.582201 -179.685297 -59.127302 2.142824 -0.384793 78.584311 -4.844165 -19.037831 21.454560 0.003108 0.000017 151.415882 17.454195 -172.036141 -45.491468 2.868722 1.025282 78.343376 -0.404968 1.288646 21.454551 -0.003091 -0.000000 13.201489 0.461867 0.396238 16.393839 0.862878 0.853984 16.075726 0.867884 0.848745 3.006263 -9.811130 -2.651435 -34.202804 5.043640 -7.000862 161.621086 -72.920302 17.471885 2.986295 55.526761 32.661418 -54.857211 -23.072753 2.493090 4.237256 -11.262978 23.481441 -177.004065 84.393701 4.634967 -19.146122 -40.378166 -8.607073 -58.134083 20.301786 -2.391600 1.119767 23.701941 -1.053313 
